STARTFONT 2.1
FONT -FontForge-DejaVu Sans Mono-Bold-R-Normal-SansMono--18-170-75-75-P-109-ISO10646-1
SIZE 17 75 75
FONTBOUNDINGBOX 21 26 -8 -7
COMMENT "Generated by fontforge, http://fontforge.sourceforge.net"
COMMENT "Copyright (c) 2003 by Bitstream, Inc. All Rights Reserved."
COMMENT "DejaVu changes are in public domain"
STARTPROPERTIES 40
FOUNDRY "FontForge"
FAMILY_NAME "DejaVu Sans Mono"
WEIGHT_NAME "Bold"
SLANT "R"
SETWIDTH_NAME "Normal"
ADD_STYLE_NAME "SansMono"
PIXEL_SIZE 18
POINT_SIZE 170
RESOLUTION_X 75
RESOLUTION_Y 75
SPACING "P"
AVERAGE_WIDTH 109
CHARSET_REGISTRY "ISO10646"
CHARSET_ENCODING "1"
FONTNAME_REGISTRY ""
CHARSET_COLLECTIONS "ASCII ISOLatin1Encoding ISO8859-2 ISO8859-5 ISO8859-7 ISO8859-9 ISO8859-6 ISO8859-4 ISO10646-1"
FONT_NAME "DejaVuSansMono-Bold"
FACE_NAME "DejaVu Sans Mono Bold"
COPYRIGHT "Copyright (c) 2003 by Bitstream, Inc. All Rights Reserved."
FONT_VERSION "2.37"
FONT_ASCENT 14
FONT_DESCENT 4
UNDERLINE_POSITION -2
UNDERLINE_THICKNESS 1
X_HEIGHT 9
CAP_HEIGHT 12
RAW_ASCENT 759
RAW_DESCENT 240
NORM_SPACE 11
RELATIVE_WEIGHT 70
RELATIVE_SETWIDTH 50
SUPERSCRIPT_X 0
SUPERSCRIPT_Y 8
SUPERSCRIPT_SIZE 12
SUBSCRIPT_X 0
SUBSCRIPT_Y 2
SUBSCRIPT_SIZE 12
FIGURE_WIDTH 11
AVG_LOWERCASE_WIDTH 110
AVG_UPPERCASE_WIDTH 109
ENDPROPERTIES
CHARS 107
STARTCHAR space
ENCODING 32
SWIDTH 602 0
DWIDTH 11 0
BBX 1 1 0 0
BITMAP
00
ENDCHAR
STARTCHAR exclam
ENCODING 33
SWIDTH 602 0
DWIDTH 11 0
BBX 3 13 4 0
BITMAP
E0
E0
E0
E0
E0
E0
E0
E0
E0
00
00
E0
E0
ENDCHAR
STARTCHAR quotedbl
ENCODING 34
SWIDTH 602 0
DWIDTH 11 0
BBX 6 5 2 8
BITMAP
CC
CC
CC
CC
CC
ENDCHAR
STARTCHAR numbersign
ENCODING 35
SWIDTH 602 0
DWIDTH 11 0
BBX 11 12 0 0
BITMAP
0CC0
0CC0
0D80
7FE0
7FE0
1980
3300
FFC0
FFC0
3300
6600
6600
ENDCHAR
STARTCHAR dollar
ENCODING 36
SWIDTH 602 0
DWIDTH 11 0
BBX 7 17 2 -3
BITMAP
10
10
78
FC
D4
D0
F0
F8
7C
1E
16
96
FE
7C
10
10
10
ENDCHAR
STARTCHAR percent
ENCODING 37
SWIDTH 602 0
DWIDTH 11 0
BBX 10 13 0 0
BITMAP
7800
CC00
CC00
CC00
CC00
7980
0E00
7780
0CC0
0CC0
0CC0
0CC0
0780
ENDCHAR
STARTCHAR ampersand
ENCODING 38
SWIDTH 602 0
DWIDTH 11 0
BBX 10 13 1 0
BITMAP
1C00
3E00
3800
3800
1800
3C00
7CC0
EEC0
E6C0
E780
F380
7F80
3DC0
ENDCHAR
STARTCHAR quotesingle
ENCODING 39
SWIDTH 602 0
DWIDTH 11 0
BBX 2 5 4 8
BITMAP
C0
C0
C0
C0
C0
ENDCHAR
STARTCHAR parenleft
ENCODING 40
SWIDTH 602 0
DWIDTH 11 0
BBX 5 16 3 -2
BITMAP
18
30
30
70
60
E0
E0
E0
E0
E0
E0
60
70
30
30
18
ENDCHAR
STARTCHAR parenright
ENCODING 41
SWIDTH 602 0
DWIDTH 11 0
BBX 5 16 3 -2
BITMAP
C0
60
60
70
30
38
38
38
38
38
38
30
70
60
60
C0
ENDCHAR
STARTCHAR asterisk
ENCODING 42
SWIDTH 602 0
DWIDTH 11 0
BBX 10 8 1 5
BITMAP
0C00
CCC0
FFC0
3F00
3F00
FFC0
CCC0
0C00
ENDCHAR
STARTCHAR plus
ENCODING 43
SWIDTH 602 0
DWIDTH 11 0
BBX 10 10 0 1
BITMAP
0C00
0C00
0C00
0C00
FFC0
FFC0
0C00
0C00
0C00
0C00
ENDCHAR
STARTCHAR comma
ENCODING 44
SWIDTH 602 0
DWIDTH 11 0
BBX 4 6 3 -3
BITMAP
70
70
70
60
E0
C0
ENDCHAR
STARTCHAR hyphen
ENCODING 45
SWIDTH 602 0
DWIDTH 11 0
BBX 6 3 3 4
BITMAP
FC
FC
FC
ENDCHAR
STARTCHAR period
ENCODING 46
SWIDTH 602 0
DWIDTH 11 0
BBX 3 3 4 0
BITMAP
E0
E0
E0
ENDCHAR
STARTCHAR slash
ENCODING 47
SWIDTH 602 0
DWIDTH 11 0
BBX 9 15 1 -2
BITMAP
0180
0300
0300
0600
0600
0C00
0C00
1C00
1800
1800
3000
3000
6000
6000
C000
ENDCHAR
STARTCHAR zero
ENCODING 48
SWIDTH 602 0
DWIDTH 11 0
BBX 9 13 1 0
BITMAP
3E00
7F00
7700
E380
E380
EB80
EB80
E380
E380
E380
7700
7F00
3E00
ENDCHAR
STARTCHAR one
ENCODING 49
SWIDTH 602 0
DWIDTH 11 0
BBX 9 13 2 0
BITMAP
3C00
FC00
DC00
1C00
1C00
1C00
1C00
1C00
1C00
1C00
1C00
FF80
FF80
ENDCHAR
STARTCHAR two
ENCODING 50
SWIDTH 602 0
DWIDTH 11 0
BBX 9 13 1 0
BITMAP
7E00
FF00
8780
0380
0380
0700
0600
0C00
1800
3000
6000
FF80
FF80
ENDCHAR
STARTCHAR three
ENCODING 51
SWIDTH 602 0
DWIDTH 11 0
BBX 9 13 1 0
BITMAP
7E00
FF00
8380
0380
0380
3E00
3F00
0780
0380
0380
8780
FF00
7E00
ENDCHAR
STARTCHAR four
ENCODING 52
SWIDTH 602 0
DWIDTH 11 0
BBX 9 13 1 0
BITMAP
0700
0F00
1F00
1F00
3700
7700
6700
C700
FF80
FF80
0700
0700
0700
ENDCHAR
STARTCHAR five
ENCODING 53
SWIDTH 602 0
DWIDTH 11 0
BBX 9 13 1 0
BITMAP
FF00
FF00
E000
E000
FE00
FF00
8780
0380
0380
0380
8780
FF00
7C00
ENDCHAR
STARTCHAR six
ENCODING 54
SWIDTH 602 0
DWIDTH 11 0
BBX 9 13 1 0
BITMAP
1E00
7F00
7100
E000
EE00
FF00
E380
E380
E380
E380
6380
7F00
3E00
ENDCHAR
STARTCHAR seven
ENCODING 55
SWIDTH 602 0
DWIDTH 11 0
BBX 9 13 1 0
BITMAP
FF80
FF80
0780
0700
0700
0E00
0E00
1E00
1C00
3C00
3800
3800
7000
ENDCHAR
STARTCHAR eight
ENCODING 56
SWIDTH 602 0
DWIDTH 11 0
BBX 9 13 1 0
BITMAP
3E00
7F00
E380
E380
E380
3E00
3E00
E380
E380
E380
E380
7F00
3E00
ENDCHAR
STARTCHAR nine
ENCODING 57
SWIDTH 602 0
DWIDTH 11 0
BBX 9 13 1 0
BITMAP
3E00
7F00
E300
E380
E380
E380
E380
7F80
3B80
0380
4700
7F00
3C00
ENDCHAR
STARTCHAR colon
ENCODING 58
SWIDTH 602 0
DWIDTH 11 0
BBX 3 9 4 0
BITMAP
E0
E0
E0
00
00
00
E0
E0
E0
ENDCHAR
STARTCHAR semicolon
ENCODING 59
SWIDTH 602 0
DWIDTH 11 0
BBX 4 12 3 -3
BITMAP
70
70
70
00
00
00
70
70
70
60
E0
C0
ENDCHAR
STARTCHAR less
ENCODING 60
SWIDTH 602 0
DWIDTH 11 0
BBX 9 9 1 1
BITMAP
0080
0780
1F00
F800
C000
F800
1F00
0780
0080
ENDCHAR
STARTCHAR equal
ENCODING 61
SWIDTH 602 0
DWIDTH 11 0
BBX 9 6 1 3
BITMAP
FF80
FF80
0000
0000
FF80
FF80
ENDCHAR
STARTCHAR greater
ENCODING 62
SWIDTH 602 0
DWIDTH 11 0
BBX 9 9 1 1
BITMAP
8000
F000
7C00
0F80
0180
0F80
7C00
F000
8000
ENDCHAR
STARTCHAR question
ENCODING 63
SWIDTH 602 0
DWIDTH 11 0
BBX 7 13 2 0
BITMAP
7C
FE
8E
0E
0C
18
30
38
38
38
00
38
38
ENDCHAR
STARTCHAR at
ENCODING 64
SWIDTH 602 0
DWIDTH 11 0
BBX 10 15 0 -3
BITMAP
0F00
3F80
71C0
60C0
E7C0
CFC0
CCC0
CCC0
CCC0
CFC0
E7C0
6000
7080
3FC0
0F80
ENDCHAR
STARTCHAR A
ENCODING 65
SWIDTH 602 0
DWIDTH 11 0
BBX 9 13 1 0
BITMAP
1C00
1C00
1C00
3600
3600
3600
3600
7700
7F00
7F00
6300
E380
E380
ENDCHAR
STARTCHAR B
ENCODING 66
SWIDTH 602 0
DWIDTH 11 0
BBX 9 13 1 0
BITMAP
FE00
FF80
E380
E380
E380
FF00
FF00
E380
E380
E380
E380
FF80
FE00
ENDCHAR
STARTCHAR C
ENCODING 67
SWIDTH 602 0
DWIDTH 11 0
BBX 9 13 1 0
BITMAP
1F00
3F80
7080
F000
E000
E000
E000
E000
E000
F000
7080
3F80
1F00
ENDCHAR
STARTCHAR D
ENCODING 68
SWIDTH 602 0
DWIDTH 11 0
BBX 9 13 1 0
BITMAP
FC00
FF00
E700
E380
E380
E380
E380
E380
E380
E380
E700
FF00
FC00
ENDCHAR
STARTCHAR E
ENCODING 69
SWIDTH 602 0
DWIDTH 11 0
BBX 9 13 1 0
BITMAP
FF80
FF80
E000
E000
E000
FF00
FF00
E000
E000
E000
E000
FF80
FF80
ENDCHAR
STARTCHAR F
ENCODING 70
SWIDTH 602 0
DWIDTH 11 0
BBX 9 13 1 0
BITMAP
FF80
FF80
E000
E000
E000
FF00
FF00
E000
E000
E000
E000
E000
E000
ENDCHAR
STARTCHAR G
ENCODING 71
SWIDTH 602 0
DWIDTH 11 0
BBX 9 13 1 0
BITMAP
1F00
3F80
7080
F000
E000
E000
EF80
EF80
E380
E380
7380
3F80
1F00
ENDCHAR
STARTCHAR H
ENCODING 72
SWIDTH 602 0
DWIDTH 11 0
BBX 9 13 1 0
BITMAP
E380
E380
E380
E380
E380
FF80
FF80
E380
E380
E380
E380
E380
E380
ENDCHAR
STARTCHAR I
ENCODING 73
SWIDTH 602 0
DWIDTH 11 0
BBX 9 13 1 0
BITMAP
FF80
FF80
1C00
1C00
1C00
1C00
1C00
1C00
1C00
1C00
1C00
FF80
FF80
ENDCHAR
STARTCHAR J
ENCODING 74
SWIDTH 602 0
DWIDTH 11 0
BBX 9 13 1 0
BITMAP
1F80
1F80
0380
0380
0380
0380
0380
0380
0380
0380
C780
FF00
7E00
ENDCHAR
STARTCHAR K
ENCODING 75
SWIDTH 602 0
DWIDTH 11 0
BBX 10 13 1 0
BITMAP
E1C0
E380
E700
EE00
EC00
FC00
FE00
FE00
E700
E700
E380
E380
E1C0
ENDCHAR
STARTCHAR L
ENCODING 76
SWIDTH 602 0
DWIDTH 11 0
BBX 9 13 1 0
BITMAP
E000
E000
E000
E000
E000
E000
E000
E000
E000
E000
E000
FF80
FF80
ENDCHAR
STARTCHAR M
ENCODING 77
SWIDTH 602 0
DWIDTH 11 0
BBX 9 13 1 0
BITMAP
E380
E380
E380
F780
F780
F780
EB80
EB80
E380
E380
E380
E380
E380
ENDCHAR
STARTCHAR N
ENCODING 78
SWIDTH 602 0
DWIDTH 11 0
BBX 9 13 1 0
BITMAP
F380
F380
F380
F380
FB80
FB80
EB80
EF80
EF80
E780
E780
E780
E380
ENDCHAR
STARTCHAR O
ENCODING 79
SWIDTH 602 0
DWIDTH 11 0
BBX 9 13 1 0
BITMAP
3E00
7F00
7700
E380
E380
E380
E380
E380
E380
E380
7700
7F00
3E00
ENDCHAR
STARTCHAR P
ENCODING 80
SWIDTH 602 0
DWIDTH 11 0
BBX 9 13 1 0
BITMAP
FE00
FF00
E380
E380
E380
E380
FF00
FE00
E000
E000
E000
E000
E000
ENDCHAR
STARTCHAR Q
ENCODING 81
SWIDTH 602 0
DWIDTH 11 0
BBX 9 15 1 -2
BITMAP
3E00
7F00
7700
E380
E380
E380
E380
E380
E380
E380
7700
7F00
3E00
0700
0200
ENDCHAR
STARTCHAR R
ENCODING 82
SWIDTH 602 0
DWIDTH 11 0
BBX 10 13 1 0
BITMAP
FE00
FF00
E380
E380
E380
E380
FF00
FE00
E700
E700
E380
E380
E1C0
ENDCHAR
STARTCHAR S
ENCODING 83
SWIDTH 602 0
DWIDTH 11 0
BBX 9 13 1 0
BITMAP
3E00
7F00
E300
E000
F000
7E00
3F00
0780
0380
8380
C380
FF00
7E00
ENDCHAR
STARTCHAR T
ENCODING 84
SWIDTH 602 0
DWIDTH 11 0
BBX 9 13 1 0
BITMAP
FF80
FF80
1C00
1C00
1C00
1C00
1C00
1C00
1C00
1C00
1C00
1C00
1C00
ENDCHAR
STARTCHAR U
ENCODING 85
SWIDTH 602 0
DWIDTH 11 0
BBX 9 13 1 0
BITMAP
E380
E380
E380
E380
E380
E380
E380
E380
E380
E380
E380
7F00
3E00
ENDCHAR
STARTCHAR V
ENCODING 86
SWIDTH 602 0
DWIDTH 11 0
BBX 9 13 1 0
BITMAP
E380
E380
6300
6300
6300
7700
7700
3600
3600
3600
3E00
1C00
1C00
ENDCHAR
STARTCHAR W
ENCODING 87
SWIDTH 602 0
DWIDTH 11 0
BBX 11 13 0 0
BITMAP
C060
C060
E060
EEE0
6EC0
6EC0
6AC0
6BC0
7BC0
7BC0
7BC0
71C0
31C0
ENDCHAR
STARTCHAR X
ENCODING 88
SWIDTH 602 0
DWIDTH 11 0
BBX 9 13 1 0
BITMAP
E380
6300
7700
3600
3E00
1C00
1C00
1C00
3E00
3600
7700
6300
E380
ENDCHAR
STARTCHAR Y
ENCODING 89
SWIDTH 602 0
DWIDTH 11 0
BBX 11 13 0 0
BITMAP
E0E0
71C0
71C0
3180
3B80
1B00
1F00
0E00
0E00
0E00
0E00
0E00
0E00
ENDCHAR
STARTCHAR Z
ENCODING 90
SWIDTH 602 0
DWIDTH 11 0
BBX 9 13 1 0
BITMAP
FF80
FF80
0380
0700
0E00
0E00
1C00
3800
3800
7000
E000
FF80
FF80
ENDCHAR
STARTCHAR bracketleft
ENCODING 91
SWIDTH 602 0
DWIDTH 11 0
BBX 5 16 4 -2
BITMAP
F8
F8
E0
E0
E0
E0
E0
E0
E0
E0
E0
E0
E0
E0
F8
F8
ENDCHAR
STARTCHAR bracketright
ENCODING 93
SWIDTH 602 0
DWIDTH 11 0
BBX 5 16 3 -2
BITMAP
F8
F8
38
38
38
38
38
38
38
38
38
38
38
38
F8
F8
ENDCHAR
STARTCHAR underscore
ENCODING 95
SWIDTH 602 0
DWIDTH 11 0
BBX 11 2 0 -4
BITMAP
FFE0
FFE0
ENDCHAR
STARTCHAR a
ENCODING 97
SWIDTH 602 0
DWIDTH 11 0
BBX 9 10 1 0
BITMAP
3E00
7F00
4380
0380
3F80
FF80
E380
E380
FF80
7B80
ENDCHAR
STARTCHAR b
ENCODING 98
SWIDTH 602 0
DWIDTH 11 0
BBX 9 14 1 0
BITMAP
E000
E000
E000
E000
EE00
FF00
F780
E380
E380
E380
E380
F780
FF00
EE00
ENDCHAR
STARTCHAR c
ENCODING 99
SWIDTH 602 0
DWIDTH 11 0
BBX 9 10 1 0
BITMAP
1F00
7F80
7080
E000
E000
E000
E000
7080
7F80
1F00
ENDCHAR
STARTCHAR d
ENCODING 100
SWIDTH 602 0
DWIDTH 11 0
BBX 9 14 1 0
BITMAP
0380
0380
0380
0380
3B80
7F80
F780
E380
E380
E380
E380
F780
7F80
3B80
ENDCHAR
STARTCHAR e
ENCODING 101
SWIDTH 602 0
DWIDTH 11 0
BBX 9 10 1 0
BITMAP
3E00
7F00
E380
E380
FF80
FF80
E000
F080
7F80
3F00
ENDCHAR
STARTCHAR f
ENCODING 102
SWIDTH 602 0
DWIDTH 11 0
BBX 8 14 2 0
BITMAP
1F
3F
38
38
FF
FF
38
38
38
38
38
38
38
38
ENDCHAR
STARTCHAR g
ENCODING 103
SWIDTH 602 0
DWIDTH 11 0
BBX 9 14 1 -4
BITMAP
3B80
7F80
F780
E380
E380
E380
E380
F780
7F80
3B80
0380
4780
7F00
3E00
ENDCHAR
STARTCHAR h
ENCODING 104
SWIDTH 602 0
DWIDTH 11 0
BBX 9 14 1 0
BITMAP
E000
E000
E000
E000
EF00
FF80
F380
E380
E380
E380
E380
E380
E380
E380
ENDCHAR
STARTCHAR i
ENCODING 105
SWIDTH 602 0
DWIDTH 11 0
BBX 9 15 1 0
BITMAP
1C00
1C00
1C00
0000
0000
FC00
FC00
1C00
1C00
1C00
1C00
1C00
1C00
FF80
FF80
ENDCHAR
STARTCHAR j
ENCODING 106
SWIDTH 602 0
DWIDTH 11 0
BBX 7 19 1 -4
BITMAP
0E
0E
0E
00
00
7E
7E
0E
0E
0E
0E
0E
0E
0E
0E
0E
0E
FC
F8
ENDCHAR
STARTCHAR k
ENCODING 107
SWIDTH 602 0
DWIDTH 11 0
BBX 9 14 1 0
BITMAP
E000
E000
E000
E000
E700
E600
EC00
FC00
FC00
FC00
EE00
E700
E700
E380
ENDCHAR
STARTCHAR l
ENCODING 108
SWIDTH 602 0
DWIDTH 11 0
BBX 10 14 0 0
BITMAP
FC00
FC00
1C00
1C00
1C00
1C00
1C00
1C00
1C00
1C00
1C00
1C00
0FC0
07C0
ENDCHAR
STARTCHAR m
ENCODING 109
SWIDTH 602 0
DWIDTH 11 0
BBX 10 10 0 0
BITMAP
FB80
FFC0
CCC0
CCC0
CCC0
CCC0
CCC0
CCC0
CCC0
CCC0
ENDCHAR
STARTCHAR n
ENCODING 110
SWIDTH 602 0
DWIDTH 11 0
BBX 9 10 1 0
BITMAP
EF00
FF80
F380
E380
E380
E380
E380
E380
E380
E380
ENDCHAR
STARTCHAR o
ENCODING 111
SWIDTH 602 0
DWIDTH 11 0
BBX 9 10 1 0
BITMAP
3E00
7F00
F780
E380
E380
E380
E380
F780
7F00
3E00
ENDCHAR
STARTCHAR p
ENCODING 112
SWIDTH 602 0
DWIDTH 11 0
BBX 9 14 1 -4
BITMAP
EE00
FF00
F780
E380
E380
E380
E380
F780
FF00
EE00
E000
E000
E000
E000
ENDCHAR
STARTCHAR q
ENCODING 113
SWIDTH 602 0
DWIDTH 11 0
BBX 9 14 1 -4
BITMAP
3B80
7F80
F780
E380
E380
E380
E380
F780
7F80
3B80
0380
0380
0380
0380
ENDCHAR
STARTCHAR r
ENCODING 114
SWIDTH 602 0
DWIDTH 11 0
BBX 8 10 3 0
BITMAP
EE
FF
F1
E0
E0
E0
E0
E0
E0
E0
ENDCHAR
STARTCHAR s
ENCODING 115
SWIDTH 602 0
DWIDTH 11 0
BBX 9 10 1 0
BITMAP
3E00
FF00
E100
F000
7E00
3F80
0380
8380
FF80
7E00
ENDCHAR
STARTCHAR t
ENCODING 116
SWIDTH 602 0
DWIDTH 11 0
BBX 9 13 0 0
BITMAP
1C00
1C00
1C00
FF80
FF80
1C00
1C00
1C00
1C00
1C00
1C00
1F80
0F80
ENDCHAR
STARTCHAR u
ENCODING 117
SWIDTH 602 0
DWIDTH 11 0
BBX 9 10 1 0
BITMAP
E380
E380
E380
E380
E380
E380
E380
E780
FF80
7B80
ENDCHAR
STARTCHAR v
ENCODING 118
SWIDTH 602 0
DWIDTH 11 0
BBX 9 10 1 0
BITMAP
E380
E380
6300
6300
7700
3600
3600
3600
1C00
1C00
ENDCHAR
STARTCHAR w
ENCODING 119
SWIDTH 602 0
DWIDTH 11 0
BBX 11 10 0 0
BITMAP
C060
C060
C060
6EC0
6EC0
6AC0
6AC0
3B80
3B80
3180
ENDCHAR
STARTCHAR x
ENCODING 120
SWIDTH 602 0
DWIDTH 11 0
BBX 9 10 1 0
BITMAP
E380
7700
3600
3E00
1C00
1C00
3E00
3600
7700
E380
ENDCHAR
STARTCHAR y
ENCODING 121
SWIDTH 602 0
DWIDTH 11 0
BBX 9 14 1 -4
BITMAP
E380
6380
7300
7700
3700
3E00
3E00
1E00
1C00
0C00
1C00
1800
7800
7000
ENDCHAR
STARTCHAR z
ENCODING 122
SWIDTH 602 0
DWIDTH 11 0
BBX 9 10 1 0
BITMAP
FF80
FF80
0380
0700
0C00
1800
7000
E000
FF80
FF80
ENDCHAR
STARTCHAR braceleft
ENCODING 123
SWIDTH 602 0
DWIDTH 11 0
BBX 9 17 1 -3
BITMAP
0F80
1F80
1C00
1C00
1C00
1C00
1C00
F800
F800
3C00
1C00
1C00
1C00
1C00
1C00
1F80
0F80
ENDCHAR
STARTCHAR bar
ENCODING 124
SWIDTH 602 0
DWIDTH 11 0
BBX 2 18 4 -4
BITMAP
C0
C0
C0
C0
C0
C0
C0
C0
C0
C0
C0
C0
C0
C0
C0
C0
C0
C0
ENDCHAR
STARTCHAR braceright
ENCODING 125
SWIDTH 602 0
DWIDTH 11 0
BBX 9 17 1 -3
BITMAP
F800
FC00
1C00
1C00
1C00
1C00
1C00
0F80
0F80
1E00
1C00
1C00
1C00
1C00
1C00
FC00
F800
ENDCHAR
STARTCHAR asciitilde
ENCODING 126
SWIDTH 602 0
DWIDTH 11 0
BBX 9 3 1 4
BITMAP
7880
FF80
8700
ENDCHAR
STARTCHAR degree
ENCODING 176
SWIDTH 602 0
DWIDTH 11 0
BBX 6 6 2 7
BITMAP
78
CC
84
84
CC
78
ENDCHAR
STARTCHAR plusminus
ENCODING 177
SWIDTH 602 0
DWIDTH 11 0
BBX 10 11 0 0
BITMAP
0C00
0C00
0C00
FFC0
FFC0
0C00
0C00
0C00
0000
FFC0
FFC0
ENDCHAR
STARTCHAR mu
ENCODING 181
SWIDTH 602 0
DWIDTH 11 0
BBX 10 14 1 -4
BITMAP
E380
E380
E380
E380
E380
E380
E380
E380
FFC0
FDC0
E000
E000
E000
E000
ENDCHAR
STARTCHAR paragraph
ENCODING 182
SWIDTH 602 0
DWIDTH 11 0
BBX 9 15 1 -2
BITMAP
3F80
7980
F980
F980
F980
F980
7980
1980
1980
1980
1980
1980
1980
1980
1980
ENDCHAR
STARTCHAR Adieresis
ENCODING 196
SWIDTH 602 0
DWIDTH 11 0
BBX 9 16 1 0
BITMAP
3600
3600
0000
1C00
1C00
1C00
3600
3600
3600
3600
7700
7F00
7F00
6300
E380
E380
ENDCHAR
STARTCHAR Odieresis
ENCODING 214
SWIDTH 602 0
DWIDTH 11 0
BBX 9 16 1 0
BITMAP
3600
3600
0000
3E00
7F00
7700
E380
E380
E380
E380
E380
E380
E380
7700
7F00
3E00
ENDCHAR
STARTCHAR Udieresis
ENCODING 220
SWIDTH 602 0
DWIDTH 11 0
BBX 9 16 1 0
BITMAP
3600
3600
0000
E380
E380
E380
E380
E380
E380
E380
E380
E380
E380
E380
7F00
3E00
ENDCHAR
STARTCHAR germandbls
ENCODING 223
SWIDTH 602 0
DWIDTH 11 0
BBX 9 14 1 0
BITMAP
3C00
7E00
E300
E300
E700
EC00
EC00
EC00
E700
E380
E380
E380
EF80
EF00
ENDCHAR
STARTCHAR adieresis
ENCODING 228
SWIDTH 602 0
DWIDTH 11 0
BBX 9 14 1 0
BITMAP
3600
3600
0000
0000
3E00
7F00
4380
0380
3F80
FF80
E380
E380
FF80
7B80
ENDCHAR
STARTCHAR odieresis
ENCODING 246
SWIDTH 602 0
DWIDTH 11 0
BBX 9 14 1 0
BITMAP
3600
3600
0000
0000
3E00
7F00
F780
E380
E380
E380
E380
F780
7F00
3E00
ENDCHAR
STARTCHAR udieresis
ENCODING 252
SWIDTH 602 0
DWIDTH 11 0
BBX 9 14 1 0
BITMAP
3600
3600
0000
0000
E380
E380
E380
E380
E380
E380
E380
E780
FF80
7B80
ENDCHAR
STARTCHAR Euro
ENCODING 8364
SWIDTH 602 0
DWIDTH 11 0
BBX 10 13 0 0
BITMAP
0780
1FC0
1C40
3800
7F80
FF80
3800
7F00
FE00
3800
1C40
1FC0
0780
ENDCHAR
STARTCHAR uni25AE
ENCODING 9646
SWIDTH 602 0
DWIDTH 11 0
BBX 5 11 3 -1
BITMAP
F8
F8
F8
F8
F8
F8
F8
F8
F8
F8
F8
ENDCHAR
STARTCHAR uni25AF
ENCODING 9647
SWIDTH 602 0
DWIDTH 11 0
BBX 5 11 3 -1
BITMAP
F8
88
88
88
88
88
88
88
88
88
F8
ENDCHAR
STARTCHAR uni26A0
ENCODING 9888
SWIDTH 602 0
DWIDTH 11 0
BBX 9 9 1 0
BITMAP
0800
1400
2C00
2A00
4A00
4900
8100
8880
FF80
ENDCHAR
ENDFONT
